<svg xmlns="http://www.w3.org/2000/svg" xmlns:xlink="http://www.w3.org/1999/xlink" width="500" zoomAndPan="magnify" viewBox="0 0 375 374.999991" height="500" preserveAspectRatio="xMidYMid meet" version="1.0"><defs><g/><clipPath id="a7ebeb924c"><path d="M 0 148.984375 L 375 148.984375 L 375 187 L 0 187 Z M 0 148.984375 " clip-rule="nonzero"/></clipPath></defs><g fill="#fbfaf9" fill-opacity="1"><g transform="translate(24.551091, 250.320644)"><g><path d="M 93.710938 -165.417969 C 122.144531 -135.992188 144.648438 -91.980469 144.648438 -49.699219 L 144.648438 -35.109375 L 143.164062 -35.109375 L 62.558594 -166.902344 L 3.707031 -166.902344 L 3.707031 -165.664062 L 20.523438 -139.453125 L 20.523438 0 L 77.886719 0 L 77.886719 -1.484375 C 47.472656 -31.402344 26.210938 -67.75 26.210938 -114.976562 L 26.210938 -131.296875 L 27.445312 -131.296875 L 108.300781 0.496094 L 150.085938 0.496094 L 150.085938 -166.902344 L 93.710938 -166.902344 Z M 93.710938 -165.417969 "/></g></g></g><g fill="#fbfaf9" fill-opacity="1"><g transform="translate(183.786123, 250.320644)"><g><path d="M 83.820312 3.707031 C 94.453125 3.707031 160.472656 -11.125 160.472656 -83.574219 C 160.472656 -131.789062 127.339844 -170.363281 83.328125 -170.363281 C 72.445312 -170.363281 6.429688 -155.527344 6.429688 -83.078125 C 6.429688 -34.863281 39.066406 3.707031 83.820312 3.707031 Z M 112.75 -10.878906 C 96.429688 -5.933594 73.683594 -32.636719 56.128906 -78.875 C 38.574219 -125.113281 41.046875 -151.570312 53.902344 -155.773438 C 69.234375 -160.222656 89.753906 -138.21875 107.0625 -94.949219 C 126.351562 -46.980469 126.101562 -15.332031 112.75 -10.878906 Z M 112.75 -10.878906 "/></g></g></g><g clip-path="url(#a7ebeb924c)"><path fill="#000000" d="M 0 148.984375 L 375.652344 148.984375 L 375.652344 186.546875 L 0 186.546875 Z M 0 148.984375 " fill-opacity="1" fill-rule="nonzero"/></g><g fill="#fbfaf9" fill-opacity="1"><g transform="translate(121.76695, 172.366424)"><g><path d="M 0.898438 0 L 3.386719 0 L 3.386719 -12.765625 L 0.898438 -12.765625 Z M 0.898438 0 "/></g></g></g><g fill="#fbfaf9" fill-opacity="1"><g transform="translate(140.461861, 172.366424)"><g><path d="M 0.898438 0 L 3.3125 0 L 3.3125 -10.15625 L 3.347656 -10.15625 L 8.894531 0 L 11.398438 0 L 16.910156 -10.15625 L 16.945312 -10.15625 L 16.945312 0 L 19.359375 0 L 19.359375 -12.765625 L 15.847656 -12.765625 L 10.136719 -2.25 L 10.121094 -2.25 L 4.375 -12.765625 L 0.898438 -12.765625 Z M 0.898438 0 "/></g></g></g><g fill="#fbfaf9" fill-opacity="1"><g transform="translate(175.122722, 172.366424)"><g><path d="M 0.0703125 0 L 2.683594 0 L 4.140625 -2.792969 L 12.136719 -2.792969 L 13.59375 0 L 16.226562 0 L 9.632812 -12.765625 L 6.71875 -12.765625 Z M 4.878906 -4.539062 L 8.140625 -10.949219 L 8.175781 -10.949219 L 11.417969 -4.539062 Z M 4.878906 -4.539062 "/></g></g></g><g fill="#fbfaf9" fill-opacity="1"><g transform="translate(205.823597, 172.366424)"><g><path d="M 9.148438 0.414062 C 12.210938 0.414062 14.730469 -0.757812 16.027344 -2.609375 L 16.042969 -2.609375 L 16.226562 0 L 18.242188 0 L 18.242188 -7.132812 L 6.574219 -7.132812 L 6.574219 -5.527344 L 15.828125 -5.527344 C 15.773438 -3.207031 13.109375 -1.441406 9.742188 -1.441406 C 5.925781 -1.441406 3.1875 -3.476562 3.1875 -6.339844 C 3.1875 -9.238281 5.707031 -11.273438 9.253906 -11.253906 C 11.5625 -11.253906 13.722656 -10.226562 14.226562 -8.769531 L 16.550781 -9.292969 C 15.882812 -11.578125 12.765625 -13.164062 9.253906 -13.164062 C 4.230469 -13.164062 0.683594 -10.316406 0.683594 -6.285156 C 0.683594 -2.378906 4.195312 0.414062 9.148438 0.414062 Z M 9.148438 0.414062 "/></g></g></g><g fill="#fbfaf9" fill-opacity="1"><g transform="translate(239.098464, 172.366424)"><g><path d="M 0.898438 0 L 13.777344 0 L 13.777344 -1.820312 L 3.332031 -1.820312 L 3.332031 -5.726562 L 12.875 -5.726562 L 12.875 -7.402344 L 3.332031 -7.402344 L 3.332031 -10.929688 L 13.59375 -10.929688 L 13.59375 -12.765625 L 0.898438 -12.765625 Z M 0.898438 0 "/></g></g></g></svg>