<svg xmlns="http://www.w3.org/2000/svg" xmlns:xlink="http://www.w3.org/1999/xlink" width="500" zoomAndPan="magnify" viewBox="0 0 375 374.999991" height="500" preserveAspectRatio="xMidYMid meet" version="1.0"><defs><g/><clipPath id="1b1da3a6d8"><path d="M 87 57.039062 L 268 57.039062 L 268 132 L 87 132 Z M 87 57.039062 " clip-rule="nonzero"/></clipPath><clipPath id="7d508c1e72"><path d="M 74.257812 98 L 176 98 L 176 216 L 74.257812 216 Z M 74.257812 98 " clip-rule="nonzero"/></clipPath><clipPath id="16502c91c0"><path d="M 180 99 L 277.507812 99 L 277.507812 217 L 180 217 Z M 180 99 " clip-rule="nonzero"/></clipPath></defs><path fill="#000000" d="M 175.414062 100.371094 C 163.75 100.371094 151.191406 97.855469 151.191406 92.332031 C 151.191406 86.808594 163.75 84.292969 175.414062 84.292969 C 187.078125 84.292969 199.632812 86.808594 199.632812 92.332031 C 199.632812 97.855469 187.078125 100.371094 175.414062 100.371094 Z M 175.414062 79.832031 C 152.632812 79.832031 136.757812 86.417969 136.757812 92.332031 C 136.757812 98.242188 152.632812 104.832031 175.414062 104.832031 C 198.191406 104.832031 214.066406 98.242188 214.066406 92.332031 C 214.066406 86.417969 198.191406 79.832031 175.414062 79.832031 " fill-opacity="1" fill-rule="nonzero"/><path fill="#000000" d="M 175.414062 87.507812 C 161.558594 87.507812 154.414062 90.886719 154.414062 92.332031 C 154.414062 93.773438 161.558594 97.152344 175.414062 97.152344 C 189.265625 97.152344 196.414062 93.773438 196.414062 92.332031 C 196.414062 90.886719 189.265625 87.507812 175.414062 87.507812 " fill-opacity="1" fill-rule="nonzero"/><g clip-path="url(#1b1da3a6d8)"><path fill="#000000" d="M 204.609375 104.117188 C 196.785156 106.878906 186.414062 108.402344 175.414062 108.402344 C 164.410156 108.402344 154.042969 106.878906 146.21875 104.117188 C 137.808594 101.144531 133.179688 96.964844 133.179688 92.332031 C 133.179688 87.699219 137.808594 83.515625 146.21875 80.546875 C 154.042969 77.78125 164.410156 76.257812 175.414062 76.257812 C 186.414062 76.257812 196.785156 77.78125 204.609375 80.546875 C 213.015625 83.515625 217.648438 87.699219 217.648438 92.332031 C 217.648438 96.964844 213.015625 101.144531 204.609375 104.117188 Z M 263.328125 85.226562 L 179.121094 57.386719 C 177.992188 57.015625 176.773438 57.015625 175.644531 57.386719 L 91.4375 85.226562 C 86.597656 86.828125 86.320312 93.554688 91.011719 95.539062 L 175.21875 131.230469 C 176.601562 131.816406 178.160156 131.816406 179.542969 131.230469 L 263.75 95.539062 C 268.441406 93.554688 268.164062 86.828125 263.328125 85.226562 " fill-opacity="1" fill-rule="nonzero"/></g><g clip-path="url(#7d508c1e72)"><path fill="#000000" d="M 149.285156 181.503906 L 149.285156 181.738281 L 149.246094 181.738281 C 148.363281 186.902344 144.914062 190.757812 140.785156 190.757812 C 135.992188 190.757812 132.105469 185.554688 132.105469 179.144531 C 132.105469 172.734375 135.992188 167.535156 140.785156 167.535156 C 142.769531 167.535156 144.601562 168.433594 146.066406 169.9375 L 146.066406 143.25 L 103.832031 125.660156 L 103.832031 156.550781 C 103.945312 157.3125 104.007812 158.101562 104.007812 158.90625 C 104.007812 165.316406 100.121094 170.515625 95.328125 170.515625 C 90.535156 170.515625 86.648438 165.316406 86.648438 158.90625 C 86.648438 152.496094 90.535156 147.300781 95.328125 147.300781 C 97.3125 147.300781 99.144531 148.191406 100.609375 149.695312 L 100.609375 120.835938 L 149.285156 141.109375 L 149.285156 176.792969 C 149.402344 177.550781 149.464844 178.339844 149.464844 179.144531 C 149.464844 179.953125 149.402344 180.742188 149.285156 181.503906 Z M 169.023438 134.152344 L 86.902344 99.390625 C 81.054688 96.910156 74.589844 101.273438 74.714844 107.621094 L 75.894531 165.273438 C 75.957031 168.484375 77.785156 171.402344 80.644531 172.871094 L 162.4375 214.945312 C 168.316406 217.96875 175.304688 213.652344 175.21875 207.050781 L 174.363281 142.089844 C 174.320312 138.621094 172.222656 135.507812 169.023438 134.152344 " fill-opacity="1" fill-rule="nonzero"/></g><g clip-path="url(#16502c91c0)"><path fill="#000000" d="M 272.585938 171.972656 C 272.585938 173.625 271.625 175.125 270.125 175.820312 L 256.546875 182.082031 L 255.839844 160.074219 L 260.417969 157.917969 L 259.054688 107.519531 L 266.691406 104.300781 C 269.488281 103.121094 272.585938 105.171875 272.585938 108.207031 Z M 232.207031 193.308594 L 231.460938 170.09375 L 236.082031 167.921875 L 234.722656 117.769531 L 246.164062 112.949219 L 247.773438 163.871094 L 253.339844 161.253906 L 254.199219 183.164062 Z M 206.316406 205.246094 L 205.546875 181.273438 L 210.1875 179.089844 L 208.824219 128.675781 L 221.832031 123.195312 L 223.4375 173.871094 L 228.953125 171.277344 L 229.863281 194.386719 Z M 193.25 211.277344 C 190.480469 212.550781 187.308594 210.589844 187.21875 207.550781 L 185.335938 141.503906 C 185.289062 139.757812 186.316406 138.160156 187.933594 137.480469 L 195.9375 134.109375 L 197.542969 185.039062 L 203.03125 182.457031 L 203.972656 206.328125 Z M 263.972656 100.59375 L 186.175781 133.753906 C 182.589844 135.28125 180.300781 138.839844 180.398438 142.730469 L 181.988281 207.003906 C 182.160156 213.878906 189.359375 218.304688 195.589844 215.359375 L 271.789062 179.339844 C 275.113281 177.765625 277.234375 174.421875 277.234375 170.75 L 277.234375 109.335938 C 277.234375 102.515625 270.253906 97.914062 263.972656 100.59375 " fill-opacity="1" fill-rule="nonzero"/></g><g fill="#000000" fill-opacity="1"><g transform="translate(44.500514, 278.002774)"><g><path d="M 1.9375 0 L 1.9375 -43.640625 L 10.921875 -43.640625 L 14.9375 -22.75 L 14.9375 -43.640625 L 23.359375 -43.640625 L 23.359375 0 L 14.828125 0 L 10.46875 -21.84375 L 10.46875 0 Z M 1.9375 0 "/></g></g></g><g fill="#000000" fill-opacity="1"><g transform="translate(81.369299, 278.002774)"><g><path d="M 12.34375 0.40625 C 8.820312 0.40625 6.144531 -0.664062 4.3125 -2.8125 C 2.488281 -4.96875 1.578125 -7.992188 1.578125 -11.890625 L 1.578125 -32.65625 C 1.578125 -36.414062 2.488281 -39.253906 4.3125 -41.171875 C 6.144531 -43.085938 8.820312 -44.046875 12.34375 -44.046875 C 15.863281 -44.046875 18.535156 -43.085938 20.359375 -41.171875 C 22.191406 -39.253906 23.109375 -36.414062 23.109375 -32.65625 L 23.109375 -11.890625 C 23.109375 -7.960938 22.191406 -4.929688 20.359375 -2.796875 C 18.535156 -0.660156 15.863281 0.40625 12.34375 0.40625 Z M 12.34375 -7.625 C 13.125 -7.625 13.648438 -7.960938 13.921875 -8.640625 C 14.191406 -9.316406 14.328125 -10.265625 14.328125 -11.484375 L 14.328125 -32.8125 C 14.328125 -33.757812 14.195312 -34.53125 13.9375 -35.125 C 13.6875 -35.71875 13.171875 -36.015625 12.390625 -36.015625 C 10.929688 -36.015625 10.203125 -34.914062 10.203125 -32.71875 L 10.203125 -11.421875 C 10.203125 -10.171875 10.351562 -9.222656 10.65625 -8.578125 C 10.96875 -7.941406 11.53125 -7.625 12.34375 -7.625 Z M 12.34375 -7.625 "/></g></g></g><g fill="#000000" fill-opacity="1"><g transform="translate(117.628743, 278.002774)"><g/></g></g><g fill="#000000" fill-opacity="1"><g transform="translate(141.092064, 278.002774)"><g><path d="M 1.53125 0 L 1.53125 -43.640625 L 9.953125 -43.640625 L 9.953125 0 Z M 1.53125 0 "/></g></g></g><g fill="#000000" fill-opacity="1"><g transform="translate(164.199935, 278.002774)"><g><path d="M 1.9375 0 L 1.9375 -43.640625 L 15.234375 -43.640625 L 18.890625 -17.015625 L 22.546875 -43.640625 L 35.96875 -43.640625 L 35.96875 0 L 27.984375 0 L 27.984375 -31.4375 L 22.953125 0 L 15.140625 0 L 9.796875 -31.4375 L 9.796875 0 Z M 1.9375 0 "/></g></g></g><g fill="#000000" fill-opacity="1"><g transform="translate(213.661732, 278.002774)"><g><path d="M 0.765625 0 L 4.984375 -43.640625 L 19.765625 -43.640625 L 23.921875 0 L 15.640625 0 L 15.03125 -7.0625 L 9.75 -7.0625 L 9.25 0 Z M 10.40625 -14.015625 L 14.375 -14.015625 L 12.4375 -36.21875 L 12.03125 -36.21875 Z M 10.40625 -14.015625 "/></g></g></g><g fill="#000000" fill-opacity="1"><g transform="translate(249.870396, 278.002774)"><g><path d="M 10.921875 0.40625 C 7.773438 0.40625 5.429688 -0.703125 3.890625 -2.921875 C 2.347656 -5.140625 1.578125 -8.5 1.578125 -13 L 1.578125 -31.796875 C 1.578125 -35.828125 2.472656 -38.875 4.265625 -40.9375 C 6.054688 -43.007812 8.734375 -44.046875 12.296875 -44.046875 C 15.171875 -44.046875 17.40625 -43.46875 19 -42.3125 C 20.59375 -41.164062 21.691406 -39.488281 22.296875 -37.28125 C 22.910156 -35.082031 23.21875 -32.253906 23.21875 -28.796875 L 14.6875 -28.796875 L 14.6875 -32.71875 C 14.6875 -33.757812 14.539062 -34.566406 14.25 -35.140625 C 13.957031 -35.722656 13.441406 -36.015625 12.703125 -36.015625 C 11.035156 -36.015625 10.203125 -34.929688 10.203125 -32.765625 L 10.203125 -11.625 C 10.203125 -10.3125 10.367188 -9.316406 10.703125 -8.640625 C 11.046875 -7.960938 11.644531 -7.625 12.5 -7.625 C 13.34375 -7.625 13.929688 -7.960938 14.265625 -8.640625 C 14.609375 -9.316406 14.78125 -10.3125 14.78125 -11.625 L 14.78125 -17.875 L 12.4375 -17.875 L 12.4375 -25.40625 L 23.109375 -25.40625 L 23.109375 0 L 19.609375 0 L 18.140625 -3.65625 C 16.578125 -0.945312 14.171875 0.40625 10.921875 0.40625 Z M 10.921875 0.40625 "/></g></g></g><g fill="#000000" fill-opacity="1"><g transform="translate(286.07906, 278.002774)"><g><path d="M 1.9375 0 L 1.9375 -43.640625 L 19.40625 -43.640625 L 19.40625 -35.203125 L 10.8125 -35.203125 L 10.8125 -26.71875 L 19.046875 -26.71875 L 19.046875 -18.484375 L 10.8125 -18.484375 L 10.8125 -8.484375 L 19.96875 -8.484375 L 19.96875 0 Z M 1.9375 0 "/></g></g></g></svg>