<svg xmlns="http://www.w3.org/2000/svg" xmlns:xlink="http://www.w3.org/1999/xlink" width="500" zoomAndPan="magnify" viewBox="0 0 375 374.999991" height="500" preserveAspectRatio="xMidYMid meet" version="1.0"><defs><g/><clipPath id="d2b8d66b0e"><path d="M 133 111.34375 L 244 111.34375 L 244 157 L 133 157 Z M 133 111.34375 " clip-rule="nonzero"/></clipPath><clipPath id="fbc5112418"><path d="M 125.613281 136 L 188 136 L 188 209 L 125.613281 209 Z M 125.613281 136 " clip-rule="nonzero"/></clipPath><clipPath id="6cdebe35c6"><path d="M 190 137 L 249.363281 137 L 249.363281 209 L 190 209 Z M 190 137 " clip-rule="nonzero"/></clipPath></defs><path fill="#000000" d="M 187.203125 137.746094 C 180.101562 137.746094 172.457031 136.210938 172.457031 132.847656 C 172.457031 129.484375 180.101562 127.949219 187.203125 127.949219 C 194.300781 127.949219 201.945312 129.484375 201.945312 132.847656 C 201.945312 136.210938 194.300781 137.746094 187.203125 137.746094 Z M 187.203125 125.230469 C 173.332031 125.230469 163.667969 129.242188 163.667969 132.847656 C 163.667969 136.449219 173.332031 140.464844 187.203125 140.464844 C 201.070312 140.464844 210.734375 136.449219 210.734375 132.847656 C 210.734375 129.242188 201.070312 125.230469 187.203125 125.230469 " fill-opacity="1" fill-rule="nonzero"/><path fill="#000000" d="M 187.203125 129.910156 C 178.765625 129.910156 174.417969 131.96875 174.417969 132.847656 C 174.417969 133.726562 178.765625 135.785156 187.203125 135.785156 C 195.636719 135.785156 199.984375 133.726562 199.984375 132.847656 C 199.984375 131.96875 195.636719 129.910156 187.203125 129.910156 " fill-opacity="1" fill-rule="nonzero"/><g clip-path="url(#d2b8d66b0e)"><path fill="#000000" d="M 204.976562 140.027344 C 200.210938 141.710938 193.898438 142.640625 187.203125 142.640625 C 180.503906 142.640625 174.191406 141.710938 169.425781 140.027344 C 164.308594 138.21875 161.488281 135.667969 161.488281 132.847656 C 161.488281 130.027344 164.308594 127.476562 169.425781 125.667969 C 174.191406 123.980469 180.503906 123.054688 187.203125 123.054688 C 193.898438 123.054688 200.210938 123.980469 204.976562 125.667969 C 210.09375 127.476562 212.914062 130.027344 212.914062 132.847656 C 212.914062 135.667969 210.09375 138.21875 204.976562 140.027344 Z M 240.722656 128.519531 L 189.457031 111.554688 C 188.773438 111.328125 188.027344 111.328125 187.34375 111.554688 L 136.078125 128.519531 C 133.132812 129.492188 132.960938 133.59375 135.820312 134.804688 L 187.082031 156.550781 C 187.925781 156.90625 188.875 156.90625 189.714844 156.550781 L 240.980469 134.804688 C 243.835938 133.59375 243.667969 129.492188 240.722656 128.519531 " fill-opacity="1" fill-rule="nonzero"/></g><g clip-path="url(#fbc5112418)"><path fill="#000000" d="M 171.292969 187.179688 L 171.292969 187.324219 L 171.269531 187.324219 C 170.734375 190.46875 168.632812 192.816406 166.117188 192.816406 C 163.203125 192.816406 160.835938 189.648438 160.835938 185.742188 C 160.835938 181.839844 163.203125 178.671875 166.117188 178.671875 C 167.328125 178.671875 168.441406 179.21875 169.335938 180.132812 L 169.335938 163.871094 L 143.621094 153.15625 L 143.621094 171.976562 C 143.691406 172.441406 143.730469 172.921875 143.730469 173.410156 C 143.730469 177.316406 141.363281 180.484375 138.445312 180.484375 C 135.527344 180.484375 133.160156 177.316406 133.160156 173.410156 C 133.160156 169.503906 135.527344 166.339844 138.445312 166.339844 C 139.65625 166.339844 140.769531 166.882812 141.660156 167.800781 L 141.660156 150.214844 L 171.292969 162.566406 L 171.292969 184.308594 C 171.367188 184.773438 171.402344 185.253906 171.402344 185.742188 C 171.402344 186.238281 171.367188 186.714844 171.292969 187.179688 Z M 183.3125 158.328125 L 133.316406 137.148438 C 129.753906 135.636719 125.820312 138.296875 125.898438 142.164062 L 126.613281 177.289062 C 126.652344 179.25 127.765625 181.027344 129.503906 181.921875 L 179.300781 207.554688 C 182.882812 209.398438 187.136719 206.769531 187.082031 202.746094 L 186.5625 163.164062 C 186.535156 161.054688 185.261719 159.15625 183.3125 158.328125 " fill-opacity="1" fill-rule="nonzero"/></g><g clip-path="url(#6cdebe35c6)"><path fill="#000000" d="M 246.359375 181.371094 C 246.359375 182.378906 245.777344 183.292969 244.863281 183.714844 L 236.59375 187.53125 L 236.164062 174.125 L 238.953125 172.808594 L 238.121094 142.101562 L 242.769531 140.140625 C 244.472656 139.421875 246.359375 140.671875 246.359375 142.519531 Z M 221.777344 194.371094 L 221.324219 180.230469 L 224.136719 178.90625 L 223.308594 148.347656 L 230.273438 145.410156 L 231.253906 176.4375 L 234.640625 174.839844 L 235.167969 188.191406 Z M 206.015625 201.648438 L 205.546875 187.039062 L 208.371094 185.707031 L 207.542969 154.992188 L 215.460938 151.652344 L 216.4375 182.53125 L 219.796875 180.949219 L 220.351562 195.03125 Z M 198.058594 205.320312 C 196.375 206.097656 194.441406 204.902344 194.390625 203.050781 L 193.242188 162.808594 C 193.210938 161.746094 193.839844 160.769531 194.824219 160.355469 L 199.695312 158.304688 L 200.675781 189.335938 L 204.015625 187.761719 L 204.585938 202.304688 Z M 241.117188 137.882812 L 193.753906 158.085938 C 191.570312 159.015625 190.175781 161.183594 190.234375 163.554688 L 191.203125 202.71875 C 191.308594 206.90625 195.691406 209.601562 199.484375 207.808594 L 245.875 185.863281 C 247.898438 184.902344 249.191406 182.863281 249.191406 180.628906 L 249.191406 143.207031 C 249.191406 139.050781 244.941406 136.25 241.117188 137.882812 " fill-opacity="1" fill-rule="nonzero"/></g><g fill="#000000" fill-opacity="1"><g transform="translate(107.468522, 246.071365)"><g><path d="M 1.171875 0 L 1.171875 -26.609375 L 6.65625 -26.609375 L 9.109375 -13.875 L 9.109375 -26.609375 L 14.25 -26.609375 L 14.25 0 L 9.046875 0 L 6.375 -13.3125 L 6.375 0 Z M 1.171875 0 "/></g></g></g><g fill="#000000" fill-opacity="1"><g transform="translate(129.94843, 246.071365)"><g><path d="M 7.53125 0.25 C 5.375 0.25 3.738281 -0.40625 2.625 -1.71875 C 1.507812 -3.03125 0.953125 -4.875 0.953125 -7.25 L 0.953125 -19.90625 C 0.953125 -22.195312 1.507812 -23.925781 2.625 -25.09375 C 3.738281 -26.257812 5.375 -26.84375 7.53125 -26.84375 C 9.675781 -26.84375 11.304688 -26.257812 12.421875 -25.09375 C 13.535156 -23.925781 14.09375 -22.195312 14.09375 -19.90625 L 14.09375 -7.25 C 14.09375 -4.851562 13.535156 -3.003906 12.421875 -1.703125 C 11.304688 -0.398438 9.675781 0.25 7.53125 0.25 Z M 7.53125 -4.640625 C 8 -4.640625 8.316406 -4.847656 8.484375 -5.265625 C 8.648438 -5.679688 8.734375 -6.257812 8.734375 -7 L 8.734375 -20 C 8.734375 -20.582031 8.65625 -21.050781 8.5 -21.40625 C 8.34375 -21.769531 8.03125 -21.953125 7.5625 -21.953125 C 6.664062 -21.953125 6.21875 -21.28125 6.21875 -19.9375 L 6.21875 -6.96875 C 6.21875 -6.207031 6.3125 -5.628906 6.5 -5.234375 C 6.6875 -4.835938 7.03125 -4.640625 7.53125 -4.640625 Z M 7.53125 -4.640625 "/></g></g></g><g fill="#000000" fill-opacity="1"><g transform="translate(152.056806, 246.071365)"><g/></g></g><g fill="#000000" fill-opacity="1"><g transform="translate(166.363036, 246.071365)"><g><path d="M 0.921875 0 L 0.921875 -26.609375 L 6.0625 -26.609375 L 6.0625 0 Z M 0.921875 0 "/></g></g></g><g fill="#000000" fill-opacity="1"><g transform="translate(180.452537, 246.071365)"><g><path d="M 1.171875 0 L 1.171875 -26.609375 L 9.296875 -26.609375 L 11.515625 -10.375 L 13.75 -26.609375 L 21.921875 -26.609375 L 21.921875 0 L 17.0625 0 L 17.0625 -19.171875 L 14 0 L 9.234375 0 L 5.984375 -19.171875 L 5.984375 0 Z M 1.171875 0 "/></g></g></g><g fill="#000000" fill-opacity="1"><g transform="translate(210.61075, 246.071365)"><g><path d="M 0.46875 0 L 3.03125 -26.609375 L 12.046875 -26.609375 L 14.59375 0 L 9.53125 0 L 9.171875 -4.296875 L 5.953125 -4.296875 L 5.640625 0 Z M 6.34375 -8.546875 L 8.765625 -8.546875 L 7.59375 -22.078125 L 7.34375 -22.078125 Z M 6.34375 -8.546875 "/></g></g></g><g fill="#000000" fill-opacity="1"><g transform="translate(232.688164, 246.071365)"><g><path d="M 6.65625 0.25 C 4.738281 0.25 3.304688 -0.425781 2.359375 -1.78125 C 1.421875 -3.132812 0.953125 -5.179688 0.953125 -7.921875 L 0.953125 -19.390625 C 0.953125 -21.847656 1.5 -23.703125 2.59375 -24.953125 C 3.695312 -26.210938 5.332031 -26.84375 7.5 -26.84375 C 9.25 -26.84375 10.609375 -26.492188 11.578125 -25.796875 C 12.546875 -25.097656 13.21875 -24.078125 13.59375 -22.734375 C 13.96875 -21.390625 14.15625 -19.664062 14.15625 -17.5625 L 8.953125 -17.5625 L 8.953125 -19.9375 C 8.953125 -20.582031 8.863281 -21.078125 8.6875 -21.421875 C 8.507812 -21.773438 8.191406 -21.953125 7.734375 -21.953125 C 6.722656 -21.953125 6.21875 -21.289062 6.21875 -19.96875 L 6.21875 -7.09375 C 6.21875 -6.289062 6.320312 -5.679688 6.53125 -5.265625 C 6.738281 -4.847656 7.101562 -4.640625 7.625 -4.640625 C 8.132812 -4.640625 8.492188 -4.847656 8.703125 -5.265625 C 8.910156 -5.679688 9.015625 -6.289062 9.015625 -7.09375 L 9.015625 -10.90625 L 7.59375 -10.90625 L 7.59375 -15.484375 L 14.09375 -15.484375 L 14.09375 0 L 11.953125 0 L 11.0625 -2.234375 C 10.101562 -0.578125 8.632812 0.25 6.65625 0.25 Z M 6.65625 0.25 "/></g></g></g><g fill="#000000" fill-opacity="1"><g transform="translate(254.765578, 246.071365)"><g><path d="M 1.171875 0 L 1.171875 -26.609375 L 11.828125 -26.609375 L 11.828125 -21.46875 L 6.59375 -21.46875 L 6.59375 -16.296875 L 11.609375 -16.296875 L 11.609375 -11.265625 L 6.59375 -11.265625 L 6.59375 -5.171875 L 12.171875 -5.171875 L 12.171875 0 Z M 1.171875 0 "/></g></g></g></svg>